<svg width="1280" height="720" xmlns="http://www.w3.org/2000/svg" xmlns:xlink="http://www.w3.org/1999/xlink" overflow="hidden"><g><rect x="0" y="0" width="1280" height="720" fill="#FFFFFF"/><rect x="375" y="5" width="530" height="75" stroke="#042433" stroke-width="2" stroke-miterlimit="8" fill="#156082"/><text fill="#FFFFFF" font-family="Aptos,Aptos_MSFontService,sans-serif" font-weight="400" font-size="24" transform="translate(420.117 36)">Recuperar</text><text fill="#FFFFFF" font-family="Aptos,Aptos_MSFontService,sans-serif" font-weight="400" font-size="24" transform="translate(532.403 36)">la</text><text fill="#FFFFFF" font-family="Aptos,Aptos_MSFontService,sans-serif" font-weight="400" font-size="24" transform="translate(556.237 36)">información de las entradas y</text><text fill="#FFFFFF" font-family="Aptos,Aptos_MSFontService,sans-serif" font-weight="400" font-size="24" transform="translate(542.25 65)">salidas del modelo</text><rect x="375" y="127" width="530" height="76" stroke="#042433" stroke-width="2" stroke-miterlimit="8" fill="#156082"/><text fill="#FFFFFF" font-family="Aptos,Aptos_MSFontService,sans-serif" font-weight="400" font-size="24" transform="translate(415.563 158)">Crear la lista que contiene las instancias de</text><text fill="#FFFFFF" font-family="Aptos,Aptos_MSFontService,sans-serif" font-weight="400" font-size="24" transform="translate(605.01 189)">cbrFox</text><rect x="375" y="373" width="530" height="76" stroke="#042433" stroke-width="2" stroke-miterlimit="8" fill="#156082"/><text fill="#FFFFFF" font-family="Aptos,Aptos_MSFontService,sans-serif" font-weight="400" font-size="24" transform="translate(413.94 404)">Usar el método</text><text fill="#FFFFFF" font-family="Aptos,Aptos_MSFontService,sans-serif" font-weight="400" font-size="24" transform="translate(576.793 404)">fit</text><text fill="#FFFFFF" font-family="Aptos,Aptos_MSFontService,sans-serif" font-weight="400" font-size="24" transform="translate(602.293 404)">de la instancia y se pasan</text><text fill="#FFFFFF" font-family="Aptos,Aptos_MSFontService,sans-serif" font-weight="400" font-size="24" transform="translate(436.793 435)">como argumentos entradas del modelo</text><rect x="375" y="496" width="530" height="76" stroke="#042433" stroke-width="2" stroke-miterlimit="8" fill="#156082"/><text fill="#FFFFFF" font-family="Aptos,Aptos_MSFontService,sans-serif" font-weight="400" font-size="24" transform="translate(387.52 527)">Usar el método</text><text fill="#FFFFFF" font-family="Aptos,Aptos_MSFontService,sans-serif" font-weight="400" font-size="24" transform="translate(550.373 527)">predict</text><text fill="#FFFFFF" font-family="Aptos,Aptos_MSFontService,sans-serif" font-weight="400" font-size="24" transform="translate(628.713 527)">de la instancia y se pasan</text><text fill="#FFFFFF" font-family="Aptos,Aptos_MSFontService,sans-serif" font-weight="400" font-size="24" transform="translate(439.44 558)">como argumentos la salida del modelo</text><rect x="375" y="251" width="530" height="75" stroke="#042433" stroke-width="2" stroke-miterlimit="8" fill="#156082"/><text fill="#FFFFFF" font-family="Aptos,Aptos_MSFontService,sans-serif" font-weight="400" font-size="24" transform="translate(411.78 281)">Crear la instancia del</text><text fill="#FFFFFF" font-family="Aptos,Aptos_MSFontService,sans-serif" font-weight="400" font-size="24" transform="translate(635.553 281)">builder</text><text fill="#FFFFFF" font-family="Aptos,Aptos_MSFontService,sans-serif" font-weight="400" font-size="24" transform="translate(713.22 281)">pasando como</text><text fill="#FFFFFF" font-family="Aptos,Aptos_MSFontService,sans-serif" font-weight="400" font-size="24" transform="translate(508.887 312)">argumento la lista creada</text><rect x="375" y="619" width="530" height="76" stroke="#042433" stroke-width="2" stroke-miterlimit="8" fill="#156082"/><text fill="#FFFFFF" font-family="Aptos,Aptos_MSFontService,sans-serif" font-weight="400" font-size="24" transform="translate(385.033 665)">Emplear</text><text fill="#FFFFFF" font-family="Aptos,Aptos_MSFontService,sans-serif" font-weight="400" font-size="24" transform="translate(476.866 665)">los</text><text fill="#FFFFFF" font-family="Aptos,Aptos_MSFontService,sans-serif" font-weight="400" font-size="24" transform="translate(512.7 665)">métodos</text><text fill="#FFFFFF" font-family="Aptos,Aptos_MSFontService,sans-serif" font-weight="400" font-size="24" transform="translate(609.913 665)">de visualización de gráficas</text><path d="M643 81 643 111.354 637 111.354 637 81ZM649 108.354 640 126.354 631 108.354Z" fill="#E97132"/><path d="M643 204 643 234.354 637 234.354 637 204ZM649 231.354 640 249.354 631 231.354Z" fill="#E97132"/><path d="M643 573 643 603.354 637 603.354 637 573ZM649 600.354 640 618.354 631 600.354Z" fill="#E97132"/><path d="M643 450 643 480.354 637 480.354 637 450ZM649 477.354 640 495.354 631 477.354Z" fill="#E97132"/><path d="M643 327 643 357.354 637 357.354 637 327ZM649 354.354 640 372.354 631 354.354Z" fill="#E97132"/></g></svg>