<svg width="1280" height="720" xmlns="http://www.w3.org/2000/svg" xmlns:xlink="http://www.w3.org/1999/xlink" overflow="hidden"><g><rect x="0" y="0" width="1280" height="720" fill="#FFFFFF"/><rect x="34" y="227" width="246" height="175" stroke="#042433" stroke-width="2" stroke-miterlimit="8" fill="#156082"/><text fill="#FFFFFF" font-family="Aptos,Aptos_MSFontService,sans-serif" font-weight="400" font-size="24" transform="translate(66.1909 322)">Script del usuario</text><rect x="640" y="227" width="245" height="175" stroke="#042433" stroke-width="2" stroke-miterlimit="8" fill="#156082"/><text fill="#FFFFFF" font-family="Aptos,Aptos_MSFontService,sans-serif" font-weight="400" font-size="24" transform="translate(724.715 322)">cbr_</text><text fill="#FFFFFF" font-family="Aptos,Aptos_MSFontService,sans-serif" font-weight="400" font-size="24" transform="translate(769.882 322)">fox</text><rect x="337" y="227" width="245" height="175" stroke="#042433" stroke-width="2" stroke-miterlimit="8" fill="#156082"/><text fill="#FFFFFF" font-family="Aptos,Aptos_MSFontService,sans-serif" font-weight="400" font-size="24" transform="translate(379.96 322)">cbr_fox</text><text fill="#FFFFFF" font-family="Aptos,Aptos_MSFontService,sans-serif" font-weight="400" font-size="24" transform="translate(455.433 322)">_</text><text fill="#FFFFFF" font-family="Aptos,Aptos_MSFontService,sans-serif" font-weight="400" font-size="24" transform="translate(466.433 322)">builder</text><rect x="997" y="489" width="246" height="174" stroke="#042433" stroke-width="2" stroke-miterlimit="8" fill="#156082"/><text fill="#FFFFFF" font-family="Aptos,Aptos_MSFontService,sans-serif" font-weight="400" font-size="24" transform="translate(1054.31 584)">cci_distance</text><rect x="640" y="489" width="245" height="174" stroke="#042433" stroke-width="2" stroke-miterlimit="8" fill="#156082"/><text fill="#FFFFFF" font-family="Aptos,Aptos_MSFontService,sans-serif" font-weight="400" font-size="24" transform="translate(675.972 584)">sktime_interface</text><path d="M280 312 333.201 312 333.201 316 280 316ZM322.209 305.273 337.171 314 322.209 322.728C321.255 323.284 320.03 322.962 319.474 322.008 318.917 321.054 319.24 319.829 320.194 319.273L332.194 312.273 332.194 315.728 320.194 308.728C319.24 308.171 318.917 306.946 319.474 305.992 320.03 305.038 321.255 304.716 322.209 305.273Z" fill="#E97132"/><path d="M2-2.40724e-06 2.0001 83.2658-1.9999 83.2658-2 2.40724e-06ZM8.72764 72.2736 0.00010474 87.2351-8.72747 72.2736C-9.28403 71.3195-8.96176 70.0948-8.00766 69.5383-7.05355 68.9817-5.82892 69.304-5.27236 70.2581L1.72766 82.2581-1.72746 82.2581 5.27253 70.2581C5.82909 69.304 7.05372 68.9817 8.00783 69.5383 8.96193 70.0948 9.2842 71.3195 8.72764 72.2736Z" fill="#E97132" transform="matrix(-1 0 0 1 762 402)"/><path d="M582 312 635.201 312 635.201 316 582 316ZM624.209 305.273 639.171 314 624.209 322.728C623.255 323.284 622.03 322.962 621.474 322.008 620.917 321.054 621.24 319.829 622.194 319.273L634.194 312.273 634.194 315.728 622.194 308.728C621.24 308.171 620.917 306.946 621.474 305.992 622.03 305.038 623.255 304.716 624.209 305.273Z" fill="#E97132"/><path d="M1.87369e-06-2 108.104-1.9999 108.104 2.0001-1.87369e-06 2ZM97.112-8.72747 112.074 0.000104975 97.112 8.72765C96.1579 9.28421 94.9332 8.96194 94.3767 8.00783 93.8201 7.05373 94.1424 5.82909 95.0965 5.27253L107.097-1.72746 107.097 1.72766 95.0965-5.27235C94.1424-5.82891 93.8201-7.05355 94.3767-8.00765 94.9333-8.96176 96.1579-9.28403 97.112-8.72747Z" fill="#E97132" transform="matrix(-1 0 0 1 997.064 576)"/><path d="M886.192 312.394 1117.92 484.486 1115.53 487.697 883.808 315.606ZM1113.1 472.53 1119.91 488.457 1102.7 486.543C1101.6 486.421 1100.81 485.433 1100.93 484.335 1101.05 483.237 1102.04 482.446 1103.14 482.568L1116.94 484.103 1114.88 486.877 1109.42 474.102C1108.99 473.087 1109.46 471.911 1110.48 471.477 1111.49 471.043 1112.67 471.514 1113.1 472.53Z" fill="#E97132"/></g></svg>